<svg width="74" height="13" viewBox="0 0 74 13" fill="none" xmlns="http://www.w3.org/2000/svg">
<path d="M3.86106 7.12808H2.5173V12.0031H0.548554V0.628078H2.5173V5.40933H3.60324L6.94699 0.628078H9.36887L5.46262 6.07339L9.71262 12.0031H7.33762L3.86106 7.12808ZM19.6345 6.61246C19.6345 7.72704 19.4418 8.70621 19.0564 9.54996C18.671 10.3885 18.1189 11.0343 17.4001 11.4875C16.6866 11.9354 15.8637 12.1593 14.9314 12.1593C14.0095 12.1593 13.1866 11.9354 12.4626 11.4875C11.7439 11.0343 11.1866 10.3911 10.7907 9.55777C10.4001 8.72444 10.2022 7.7635 10.197 6.67496V6.03433C10.197 4.92495 10.3923 3.94579 10.7829 3.09683C11.1788 2.24787 11.7335 1.59943 12.447 1.15152C13.1657 0.698391 13.9887 0.471828 14.9157 0.471828C15.8428 0.471828 16.6631 0.695787 17.3767 1.1437C18.0954 1.58641 18.6501 2.22704 19.0407 3.06558C19.4314 3.89891 19.6293 4.87027 19.6345 5.97964V6.61246ZM17.6579 6.01871C17.6579 4.75829 17.4184 3.79214 16.9392 3.12027C16.4652 2.44839 15.7907 2.11245 14.9157 2.11245C14.0616 2.11245 13.3923 2.44839 12.9079 3.12027C12.4288 3.78693 12.184 4.73225 12.1736 5.95621V6.61246C12.1736 7.86246 12.4157 8.8286 12.9001 9.51089C13.3897 10.1932 14.0668 10.5343 14.9314 10.5343C15.8064 10.5343 16.4782 10.201 16.947 9.53433C17.421 8.86766 17.6579 7.89371 17.6579 6.61246V6.01871ZM23.5798 7.77652V12.0031H21.6032V0.628078H25.9548C27.2256 0.628078 28.2335 0.958807 28.9783 1.62027C29.7283 2.28172 30.1033 3.15672 30.1033 4.24527C30.1033 5.35985 29.7361 6.22704 29.0017 6.84683C28.2725 7.46662 27.2491 7.77652 25.9314 7.77652H23.5798ZM23.5798 6.19058H25.9548C26.6579 6.19058 27.1944 6.02652 27.5642 5.69839C27.934 5.36506 28.1189 4.88589 28.1189 4.26089C28.1189 3.64631 27.9314 3.15672 27.5564 2.79214C27.1814 2.42235 26.6658 2.23225 26.0095 2.22183H23.5798V6.19058ZM37.5251 3.72964C37.5251 3.21922 37.3324 2.81297 36.947 2.51089C36.5616 2.20881 36.0382 2.05777 35.3767 2.05777C34.809 2.05777 34.335 2.20881 33.9548 2.51089C33.5746 2.80777 33.3845 3.19318 33.3845 3.66714H31.4158C31.4158 3.04735 31.5876 2.49527 31.9314 2.01089C32.2751 1.52652 32.7517 1.15152 33.3611 0.885891C33.9704 0.615057 34.6423 0.479641 35.3767 0.479641C36.6788 0.479641 37.6892 0.763495 38.4079 1.3312C39.1319 1.89891 39.4939 2.69318 39.4939 3.71402C39.4939 4.22964 39.3376 4.7036 39.0251 5.13589C38.7126 5.56818 38.2751 5.90933 37.7126 6.15933C38.348 6.37808 38.8324 6.71141 39.1658 7.15933C39.5043 7.60204 39.6736 8.15412 39.6736 8.81558C39.6736 9.83641 39.2829 10.6489 38.5017 11.2531C37.7204 11.852 36.6788 12.1515 35.3767 12.1515C34.5746 12.1515 33.848 12.0083 33.197 11.7218C32.5512 11.4354 32.0642 11.0447 31.7361 10.55C31.4131 10.0552 31.2517 9.48746 31.2517 8.84683H33.2204C33.2204 9.33641 33.4236 9.75048 33.8298 10.089C34.2361 10.4224 34.7517 10.589 35.3767 10.589C36.0746 10.589 36.6345 10.425 37.0564 10.0968C37.4835 9.76871 37.697 9.34162 37.697 8.81558C37.697 8.17496 37.5095 7.71141 37.1345 7.42496C36.7647 7.13329 36.2204 6.98746 35.5017 6.98746H34.1658V5.42495H35.4314C36.8272 5.42495 37.5251 4.85985 37.5251 3.72964ZM48.4783 0.628078H50.4548V12.0031H48.4783V3.90152L43.4861 12.0031H41.5095V0.628078H43.4861V8.73746L48.4783 0.628078ZM61.8533 12.0031H59.8845V6.94839H54.7986V12.0031H52.822V0.628078H54.7986V5.36245H59.8845V0.628078H61.8533V12.0031ZM70.7048 9.35464H66.2986L65.3767 12.0031H63.322L67.6189 0.628078H69.3923L73.697 12.0031H71.6345L70.7048 9.35464ZM66.8533 7.76089H70.1501L68.5017 3.04214L66.8533 7.76089Z" fill="black"/>
</svg>
