<svg width="136" height="23" viewBox="0 0 136 23" fill="none" xmlns="http://www.w3.org/2000/svg">
<path d="M0.523437 22V4.93751H6.5C8.57031 4.93751 10.1406 5.33594 11.2109 6.13282C12.2812 6.92188 12.8164 8.08204 12.8164 9.61329C12.8164 10.4492 12.6016 11.1875 12.1719 11.8281C11.7422 12.4609 11.1445 12.9258 10.3789 13.2227C11.2539 13.4414 11.9414 13.8828 12.4414 14.5469C12.9492 15.2109 13.2031 16.0234 13.2031 16.9844C13.2031 18.625 12.6797 19.8672 11.6328 20.7109C10.5859 21.5547 9.09375 21.9844 7.15625 22H0.523437ZM4.03906 14.5703V19.1758H7.05078C7.8789 19.1758 8.52343 18.9805 8.98437 18.5898C9.45312 18.1914 9.6875 17.6445 9.6875 16.9492C9.6875 15.3867 8.8789 14.5938 7.26172 14.5703H4.03906ZM4.03906 12.0859H6.64062C8.41406 12.0547 9.30078 11.3477 9.30078 9.96485C9.30078 9.19141 9.07421 8.63672 8.62109 8.30079C8.17578 7.95704 7.46875 7.78516 6.5 7.78516H4.03906V12.0859ZM26.1172 14.6055H19.3672V19.1758H27.2891V22H15.8516V4.93751H27.2656V7.78516H19.3672V11.8516H26.1172V14.6055ZM40.4844 7.78516H32.8672V11.0898H35.6094C37.6172 11.0898 39.207 11.5781 40.3789 12.5547C41.5586 13.5234 42.1484 14.832 42.1484 16.4805C42.1484 18.1367 41.5625 19.4688 40.3906 20.4766C39.2265 21.4766 37.6758 21.9844 35.7383 22H29.3164V4.93751H40.4844V7.78516ZM32.8672 13.9258V19.1758H35.668C36.5664 19.1758 37.2812 18.9297 37.8125 18.4375C38.3515 17.9453 38.6211 17.2852 38.6211 16.457C38.6211 15.6836 38.3633 15.0742 37.8476 14.6289C37.3398 14.1758 36.6406 13.9414 35.75 13.9258H32.8672ZM50.7617 16.0586H44.164V13.3281H50.7617V16.0586ZM67.0976 16.3164C66.9648 18.1523 66.2851 19.5977 65.0586 20.6523C63.8398 21.707 62.2304 22.2344 60.2304 22.2344C58.0429 22.2344 56.3203 21.5 55.0625 20.0313C53.8125 18.5547 53.1875 16.5313 53.1875 13.9609V12.918C53.1875 11.2773 53.4765 9.83204 54.0547 8.58204C54.6328 7.33204 55.457 6.37501 56.5273 5.71094C57.6054 5.03907 58.8554 4.70313 60.2773 4.70313C62.2461 4.70313 63.832 5.23048 65.0351 6.28516C66.2383 7.33985 66.9336 8.82032 67.1211 10.7266H63.6054C63.5195 9.625 63.2109 8.82813 62.6797 8.33594C62.1562 7.83594 61.3554 7.58594 60.2773 7.58594C59.1054 7.58594 58.2265 8.00782 57.6406 8.85157C57.0625 9.6875 56.7656 10.9883 56.75 12.7539V14.043C56.75 15.8867 57.0273 17.2344 57.582 18.0859C58.1445 18.9375 59.0273 19.3633 60.2304 19.3633C61.3164 19.3633 62.125 19.1172 62.6562 18.625C63.1953 18.125 63.5039 17.3555 63.582 16.3164H67.0976ZM79.039 18.4844H72.875L71.7031 22H67.9648L74.3164 4.93751H77.5742L83.9609 22H80.2226L79.039 18.4844ZM73.8242 15.6367H78.0898L75.9453 9.25001L73.8242 15.6367ZM95.7851 4.93751H99.3125V22H95.7851V10.668L88.9531 22H85.4375V4.93751H88.9531V16.293L95.7851 4.93751ZM96.4648 0.449227C96.4648 1.48829 96.0898 2.32813 95.3398 2.96876C94.5976 3.60938 93.6211 3.92969 92.4101 3.92969C91.1992 3.92969 90.2187 3.61329 89.4687 2.98048C88.7265 2.34766 88.3554 1.50391 88.3554 0.449227H90.7578C90.7578 0.941415 90.9023 1.32423 91.1914 1.59766C91.4882 1.86329 91.8945 1.9961 92.4101 1.9961C92.9179 1.9961 93.3164 1.86329 93.6054 1.59766C93.8945 1.32423 94.039 0.941415 94.039 0.449227H96.4648ZM115.203 7.78516H109.977V22H106.461V7.78516H101.305V4.93751H115.203V7.78516ZM120.793 11.0898H123.535C125.543 11.0898 127.133 11.5781 128.305 12.5547C129.484 13.5234 130.074 14.832 130.074 16.4805C130.074 18.1367 129.488 19.4688 128.316 20.4766C127.152 21.4766 125.602 21.9844 123.664 22H117.254V4.93751H120.793V11.0898ZM135.055 22H131.539V4.93751H135.055V22ZM120.793 13.9258V19.1758H123.594C124.492 19.1758 125.207 18.9297 125.738 18.4375C126.277 17.9453 126.547 17.2852 126.547 16.457C126.547 15.6836 126.289 15.0742 125.773 14.6289C125.266 14.1758 124.566 13.9414 123.676 13.9258H120.793Z" fill="black"/>
</svg>
