<svg width="75" height="12" viewBox="0 0 75 12" fill="none" xmlns="http://www.w3.org/2000/svg">
<path d="M3.52344 7.125H2.17969V12H0.210938V0.624996H2.17969V5.40625H3.26563L6.60938 0.624996H9.03125L5.125 6.07031L9.375 12H7L3.52344 7.125ZM19.4141 0.624996V12H17.4453V2.21875H13.9609L13.7578 6.61719C13.6797 7.99219 13.5104 9.05989 13.25 9.82031C12.9948 10.5755 12.6224 11.1276 12.1328 11.4766C11.6432 11.8255 10.987 12 10.1641 12H9.66407V10.4219L9.97657 10.3984C10.4297 10.3568 10.7787 10.1979 11.0234 9.92187C11.2734 9.64583 11.4609 9.22917 11.5859 8.67187C11.7162 8.10937 11.8073 7.28385 11.8594 6.19531L12.0781 0.624996H19.4141ZM28.7656 0.624996H30.7422V12H28.7656V3.89843L23.7734 12H21.7969V0.624996H23.7734V8.73437L28.7656 0.624996ZM39.7578 6.92187H35.086V10.4219H40.5469V12H33.1094V0.624996H40.4922V2.21875H35.086V5.35937H39.7578V6.92187ZM51.1875 12H49.2188V6.94531H44.1328V12H42.1563V0.624996H44.1328V5.35937H49.2188V0.624996H51.1875V12ZM61.5156 2.21875H57.9688V12H56.0078V2.21875H52.4922V0.624996H61.5156V2.21875ZM65.0469 4.97656H67.375C68.2084 4.97656 68.9349 5.11979 69.5547 5.40625C70.1745 5.69271 70.6459 6.09896 70.9688 6.625C71.2917 7.15104 71.4532 7.76042 71.4532 8.45312C71.4532 9.51562 71.0912 10.3698 70.3672 11.0156C69.6485 11.6615 68.6667 11.9896 67.4219 12H63.0703V0.624996H65.0469V4.97656ZM74.5469 12H72.5782V0.624996H74.5469V12ZM65.0469 6.5625V10.4219H67.3672C68.0339 10.4219 68.5521 10.2422 68.9219 9.88281C69.2969 9.51823 69.4844 9.03646 69.4844 8.4375C69.4844 7.86458 69.3021 7.41146 68.9375 7.07812C68.5729 6.74479 68.0677 6.57291 67.4219 6.5625H65.0469Z" fill="black"/>
</svg>
