<svg width="84" height="13" viewBox="0 0 84 13" fill="none" xmlns="http://www.w3.org/2000/svg">
<path d="M3.85153 7.125H2.50778V12H0.539032V0.624996H2.50778V5.40625H3.59372L6.93747 0.624996H9.35935L5.4531 6.07031L9.7031 12H7.3281L3.85153 7.125ZM19.625 6.60937C19.625 7.72396 19.4323 8.70312 19.0469 9.54687C18.6614 10.3854 18.1094 11.0312 17.3906 11.4844C16.6771 11.9323 15.8541 12.1563 14.9219 12.1563C14 12.1563 13.1771 11.9323 12.4531 11.4844C11.7343 11.0312 11.1771 10.388 10.7812 9.55469C10.3906 8.72135 10.1927 7.76042 10.1875 6.67187V6.03125C10.1875 4.92187 10.3828 3.94271 10.7734 3.09375C11.1692 2.24479 11.7239 1.59635 12.4375 1.14843C13.1562 0.695308 13.9791 0.468746 14.9062 0.468746C15.8333 0.468746 16.6536 0.692704 17.3672 1.14062C18.0859 1.58333 18.6406 2.22395 19.0312 3.0625C19.4219 3.89583 19.6198 4.86718 19.625 5.97656V6.60937ZM17.6484 6.01562C17.6484 4.75521 17.4088 3.78906 16.9297 3.11718C16.4557 2.44531 15.7812 2.10937 14.9062 2.10937C14.0521 2.10937 13.3828 2.44531 12.8984 3.11718C12.4192 3.78385 12.1745 4.72916 12.164 5.95312V6.60937C12.164 7.85937 12.4062 8.82552 12.8906 9.50781C13.3802 10.1901 14.0573 10.5312 14.9219 10.5312C15.7969 10.5312 16.4687 10.1979 16.9375 9.53125C17.4114 8.86458 17.6484 7.89062 17.6484 6.60937V6.01562ZM30.625 12H28.6562V6.94531H23.5703V12H21.5937V0.624996H23.5703V5.35937H28.6562V0.624996H30.625V12ZM40.9531 2.21875H37.4062V12H35.4453V2.21875H31.9297V0.624996H40.9531V2.21875ZM47.8828 9.35156H43.4765L42.5547 12H40.5L44.7969 0.624996H46.5703L50.875 12H48.8125L47.8828 9.35156ZM44.0312 7.75781H47.3281L45.6797 3.03906L44.0312 7.75781ZM55.5391 7.125H54.1953V12H52.2266V0.624996H54.1953V5.40625H55.2812L58.625 0.624996H61.0469L57.1406 6.07031L61.3906 12H59.0156L55.5391 7.125ZM70.7031 2.21875H67.1562V12H65.1953V2.21875H61.6797V0.624996H70.7031V2.21875ZM74.2344 4.97656H76.5625C77.3958 4.97656 78.1224 5.11979 78.7422 5.40625C79.362 5.69271 79.8333 6.09896 80.1562 6.625C80.4792 7.15104 80.6406 7.76042 80.6406 8.45312C80.6406 9.51562 80.2786 10.3698 79.5547 11.0156C78.8359 11.6615 77.8542 11.9896 76.6094 12H72.2578V0.624996H74.2344V4.97656ZM83.7344 12H81.7656V0.624996H83.7344V12ZM74.2344 6.5625V10.4219H76.5547C77.2213 10.4219 77.7396 10.2422 78.1094 9.88281C78.4844 9.51823 78.6719 9.03646 78.6719 8.4375C78.6719 7.86458 78.4896 7.41146 78.125 7.07812C77.7604 6.74479 77.2552 6.57291 76.6094 6.5625H74.2344Z" fill="black"/>
</svg>
