<svg width="73" height="13" viewBox="0 0 73 13" fill="none" xmlns="http://www.w3.org/2000/svg">
<path d="M2.71875 0.628078L6 9.34683L9.27344 0.628078H11.8281V12.0031H9.85938V8.25308L10.0547 3.23745L6.69532 12.0031H5.28125L1.92969 3.24527L2.125 8.25308V12.0031H0.15625V0.628078H2.71875ZM20.6797 9.35464H16.2734L15.3516 12.0031H13.2969L17.5938 0.628078H19.3672L23.6719 12.0031H21.6094L20.6797 9.35464ZM16.8281 7.76089H20.125L18.4766 3.04214L16.8281 7.76089ZM32.2422 2.22183H26.9922V12.0031H25.0234V0.628078H32.2422V2.22183ZM38.6485 9.35464H34.2422L33.3203 12.0031H31.2656L35.5625 0.628078H37.336L41.6406 12.0031H39.5781L38.6485 9.35464ZM34.7969 7.76089H38.0938L36.4453 3.04214L34.7969 7.76089ZM48.625 3.72964C48.625 3.21922 48.4323 2.81297 48.0469 2.51089C47.6615 2.20881 47.138 2.05777 46.4766 2.05777C45.9089 2.05777 45.4349 2.20881 45.0547 2.51089C44.6745 2.80777 44.4844 3.19318 44.4844 3.66714H42.5156C42.5156 3.04735 42.6875 2.49527 43.0313 2.01089C43.375 1.52652 43.8516 1.15152 44.461 0.885891C45.0703 0.615057 45.7422 0.479641 46.4766 0.479641C47.7787 0.479641 48.7891 0.763495 49.5078 1.3312C50.2318 1.89891 50.5938 2.69318 50.5938 3.71402C50.5938 4.22964 50.4375 4.7036 50.125 5.13589C49.8125 5.56818 49.375 5.90933 48.8125 6.15933C49.4479 6.37808 49.9323 6.71141 50.2656 7.15933C50.6042 7.60204 50.7735 8.15412 50.7735 8.81558C50.7735 9.83641 50.3828 10.6489 49.6016 11.2531C48.8203 11.852 47.7787 12.1515 46.4766 12.1515C45.6745 12.1515 44.9479 12.0083 44.2969 11.7218C43.6511 11.4354 43.1641 11.0447 42.836 10.55C42.513 10.0552 42.3516 9.48746 42.3516 8.84683H44.3203C44.3203 9.33641 44.5235 9.75048 44.9297 10.089C45.336 10.4224 45.8516 10.589 46.4766 10.589C47.1745 10.589 47.7344 10.425 48.1563 10.0968C48.5834 9.76871 48.7969 9.34162 48.7969 8.81558C48.7969 8.17496 48.6094 7.71141 48.2344 7.42496C47.8646 7.13329 47.3203 6.98746 46.6016 6.98746H45.2656V5.42495H46.5313C47.9271 5.42495 48.625 4.85985 48.625 3.72964ZM59.5781 0.628078H61.5547V12.0031H59.5781V3.90152L54.586 12.0031H52.6094V0.628078H54.586V8.73746L59.5781 0.628078ZM72.9532 12.0031H70.9844V6.94839H65.8985V12.0031H63.9219V0.628078H65.8985V5.36245H70.9844V0.628078H72.9532V12.0031Z" fill="black"/>
</svg>
