<svg width="133" height="14" viewBox="0 0 133 14" fill="none" xmlns="http://www.w3.org/2000/svg">
<path d="M11.1885 8.7373C11.0889 10.1143 10.5791 11.1982 9.65918 11.9893C8.74512 12.7803 7.53809 13.1758 6.03809 13.1758C4.39746 13.1758 3.10547 12.625 2.16211 11.5234C1.22461 10.416 0.755859 8.89844 0.755859 6.9707V6.18848C0.755859 4.95801 0.972656 3.87402 1.40625 2.93652C1.83984 1.99902 2.45801 1.28125 3.26074 0.783203C4.06934 0.279297 5.00684 0.0273438 6.07324 0.0273438C7.5498 0.0273438 8.73926 0.422852 9.6416 1.21387C10.5439 2.00488 11.0654 3.11523 11.2061 4.54492H8.56934C8.50488 3.71875 8.27344 3.12109 7.875 2.75195C7.48242 2.37695 6.88184 2.18945 6.07324 2.18945C5.19434 2.18945 4.53516 2.50586 4.0957 3.13867C3.66211 3.76562 3.43945 4.74121 3.42773 6.06543V7.03223C3.42773 8.41504 3.63574 9.42578 4.05176 10.0645C4.47363 10.7031 5.13574 11.0225 6.03809 11.0225C6.85254 11.0225 7.45898 10.8379 7.85742 10.4688C8.26172 10.0938 8.49316 9.5166 8.55176 8.7373H11.1885ZM23.4316 6.8916C23.4316 8.15137 23.209 9.25586 22.7637 10.2051C22.3184 11.1543 21.6797 11.8867 20.8477 12.4023C20.0215 12.918 19.0723 13.1758 18 13.1758C16.9395 13.1758 15.9932 12.9209 15.1611 12.4111C14.3291 11.9014 13.6846 11.1748 13.2275 10.2314C12.7705 9.28223 12.5391 8.19238 12.5332 6.96191V6.3291C12.5332 5.06934 12.7588 3.96191 13.21 3.00684C13.667 2.0459 14.3086 1.31055 15.1348 0.800781C15.9668 0.285156 16.916 0.0273438 17.9824 0.0273438C19.0488 0.0273438 19.9951 0.285156 20.8213 0.800781C21.6533 1.31055 22.2949 2.0459 22.7461 3.00684C23.2031 3.96191 23.4316 5.06641 23.4316 6.32031V6.8916ZM20.7598 6.31152C20.7598 4.96973 20.5195 3.9502 20.0391 3.25293C19.5586 2.55566 18.873 2.20703 17.9824 2.20703C17.0977 2.20703 16.415 2.55273 15.9346 3.24414C15.4541 3.92969 15.2109 4.9375 15.2051 6.26758V6.8916C15.2051 8.19824 15.4453 9.21191 15.9258 9.93262C16.4062 10.6533 17.0977 11.0137 18 11.0137C18.8848 11.0137 19.5645 10.668 20.0391 9.97656C20.5137 9.2793 20.7539 8.26562 20.7598 6.93555V6.31152ZM27.9844 8.49121V13H25.3477V0.203125H30.3398C31.3008 0.203125 32.1445 0.378906 32.8711 0.730469C33.6035 1.08203 34.166 1.58301 34.5586 2.2334C34.9512 2.87793 35.1475 3.61328 35.1475 4.43945C35.1475 5.69336 34.7168 6.68359 33.8555 7.41016C33 8.13086 31.8135 8.49121 30.2959 8.49121H27.9844ZM27.9844 6.35547H30.3398C31.0371 6.35547 31.5674 6.19141 31.9307 5.86328C32.2998 5.53516 32.4844 5.06641 32.4844 4.45703C32.4844 3.83008 32.2998 3.32324 31.9307 2.93652C31.5615 2.5498 31.0518 2.35059 30.4014 2.33887H27.9844V6.35547ZM46.5996 2.33887H42.6797V13H40.043V2.33887H36.1758V0.203125H46.5996V2.33887ZM55.7842 0.203125H58.4297V13H55.7842V4.50098L50.6602 13H48.0234V0.203125H50.6602V8.71973L55.7842 0.203125ZM63.3516 8.49121V13H60.7148V0.203125H65.707C66.668 0.203125 67.5117 0.378906 68.2383 0.730469C68.9707 1.08203 69.5332 1.58301 69.9258 2.2334C70.3184 2.87793 70.5146 3.61328 70.5146 4.43945C70.5146 5.69336 70.084 6.68359 69.2227 7.41016C68.3672 8.13086 67.1807 8.49121 65.6631 8.49121H63.3516ZM63.3516 6.35547H65.707C66.4043 6.35547 66.9346 6.19141 67.2979 5.86328C67.667 5.53516 67.8516 5.06641 67.8516 4.45703C67.8516 3.83008 67.667 3.32324 67.2979 2.93652C66.9287 2.5498 66.4189 2.35059 65.7686 2.33887H63.3516V6.35547ZM82.8457 6.8916C82.8457 8.15137 82.623 9.25586 82.1777 10.2051C81.7324 11.1543 81.0938 11.8867 80.2617 12.4023C79.4355 12.918 78.4863 13.1758 77.4141 13.1758C76.3535 13.1758 75.4072 12.9209 74.5752 12.4111C73.7432 11.9014 73.0986 11.1748 72.6416 10.2314C72.1846 9.28223 71.9531 8.19238 71.9473 6.96191V6.3291C71.9473 5.06934 72.1729 3.96191 72.624 3.00684C73.0811 2.0459 73.7227 1.31055 74.5488 0.800781C75.3809 0.285156 76.3301 0.0273438 77.3965 0.0273438C78.4629 0.0273438 79.4092 0.285156 80.2354 0.800781C81.0674 1.31055 81.709 2.0459 82.1602 3.00684C82.6172 3.96191 82.8457 5.06641 82.8457 6.32031V6.8916ZM80.1738 6.31152C80.1738 4.96973 79.9336 3.9502 79.4531 3.25293C78.9727 2.55566 78.2871 2.20703 77.3965 2.20703C76.5117 2.20703 75.8291 2.55273 75.3486 3.24414C74.8682 3.92969 74.625 4.9375 74.6191 6.26758V6.8916C74.6191 8.19824 74.8594 9.21191 75.3398 9.93262C75.8203 10.6533 76.5117 11.0137 77.4141 11.0137C78.2988 11.0137 78.9785 10.668 79.4531 9.97656C79.9277 9.2793 80.168 8.26562 80.1738 6.93555V6.31152ZM84.7617 13V0.203125H89.2441C90.7969 0.203125 91.9746 0.501953 92.7773 1.09961C93.5801 1.69141 93.9814 2.56152 93.9814 3.70996C93.9814 4.33691 93.8203 4.89062 93.498 5.37109C93.1758 5.8457 92.7275 6.19434 92.1533 6.41699C92.8096 6.58105 93.3252 6.91211 93.7002 7.41016C94.0811 7.9082 94.2715 8.51758 94.2715 9.23828C94.2715 10.4688 93.8789 11.4004 93.0938 12.0332C92.3086 12.666 91.1895 12.9883 89.7363 13H84.7617ZM87.3984 7.42773V10.8818H89.6572C90.2783 10.8818 90.7617 10.7354 91.1074 10.4424C91.459 10.1436 91.6348 9.7334 91.6348 9.21191C91.6348 8.04004 91.0283 7.44531 89.8154 7.42773H87.3984ZM87.3984 5.56445H89.3496C90.6797 5.54102 91.3447 5.01074 91.3447 3.97363C91.3447 3.39355 91.1748 2.97754 90.835 2.72559C90.501 2.46777 89.9707 2.33887 89.2441 2.33887H87.3984V5.56445ZM103.482 10.3633H98.8594L97.9805 13H95.1768L99.9404 0.203125H102.384L107.174 13H104.37L103.482 10.3633ZM99.5713 8.22754H102.771L101.162 3.4375L99.5713 8.22754ZM116.947 2.33887H113.027V13H110.391V2.33887H106.523V0.203125H116.947V2.33887ZM121.236 4.81738H123.293C124.799 4.81738 125.991 5.18359 126.87 5.91602C127.755 6.64258 128.197 7.62402 128.197 8.86035C128.197 10.1025 127.758 11.1016 126.879 11.8574C126.006 12.6074 124.843 12.9883 123.39 13H118.582V0.203125H121.236V4.81738ZM121.236 6.94434V10.8818H123.337C124.011 10.8818 124.547 10.6973 124.945 10.3281C125.35 9.95898 125.552 9.46387 125.552 8.84277C125.552 8.2627 125.358 7.80566 124.972 7.47168C124.591 7.13184 124.066 6.95605 123.398 6.94434H121.236ZM129.823 11.752C129.823 11.3477 129.958 11.0195 130.228 10.7676C130.503 10.5156 130.846 10.3896 131.256 10.3896C131.672 10.3896 132.015 10.5156 132.284 10.7676C132.56 11.0195 132.697 11.3477 132.697 11.752C132.697 12.1504 132.562 12.4756 132.293 12.7275C132.023 12.9736 131.678 13.0967 131.256 13.0967C130.84 13.0967 130.497 12.9736 130.228 12.7275C129.958 12.4756 129.823 12.1504 129.823 11.752ZM129.823 4.55371C129.823 4.14941 129.958 3.82129 130.228 3.56934C130.503 3.31738 130.846 3.19141 131.256 3.19141C131.672 3.19141 132.015 3.31738 132.284 3.56934C132.56 3.82129 132.697 4.14941 132.697 4.55371C132.697 4.95215 132.562 5.27734 132.293 5.5293C132.023 5.77539 131.678 5.89844 131.256 5.89844C130.84 5.89844 130.497 5.77539 130.228 5.5293C129.958 5.27734 129.823 4.95215 129.823 4.55371Z" fill="black"/>
</svg>
