<svg width="62" height="15" viewBox="0 0 62 15" fill="none" xmlns="http://www.w3.org/2000/svg">
<path d="M9.83594 8.29996C9.72136 9.5135 9.27344 10.4614 8.49219 11.1437C7.71094 11.8208 6.67188 12.1593 5.375 12.1593C4.46875 12.1593 3.66927 11.9458 2.97656 11.5187C2.28906 11.0864 1.75781 10.4744 1.38281 9.68277C1.00781 8.8911 0.8125 7.97183 0.796875 6.92496V5.86246C0.796875 4.78954 0.98698 3.84423 1.36719 3.02652C1.7474 2.20881 2.29167 1.5786 3 1.13589C3.71354 0.693182 4.53646 0.471828 5.46875 0.471828C6.72396 0.471828 7.73438 0.812974 8.5 1.49527C9.26563 2.17756 9.71094 3.1411 9.83594 4.38589H7.86719C7.77344 3.56818 7.53386 2.97964 7.14844 2.62027C6.76823 2.25568 6.20834 2.07339 5.46875 2.07339C4.60938 2.07339 3.94792 2.3885 3.48438 3.0187C3.02604 3.6437 2.79167 4.56298 2.78125 5.77652V6.78433C2.78125 8.0135 3 8.951 3.4375 9.59683C3.88021 10.2427 4.52604 10.5656 5.375 10.5656C6.15104 10.5656 6.73438 10.3911 7.125 10.0421C7.51563 9.69319 7.76302 9.11246 7.86719 8.29996H9.83594ZM19.5938 2.22183H16.0469V12.0031H14.0859V2.22183H10.5703V0.628078H19.5938V2.22183ZM25.1875 6.57339L27.4688 0.628078H29.6641L25.7031 10.0656L25.3438 10.7765C24.8229 11.7036 23.9792 12.1671 22.8125 12.1671L22 12.1203L22.0156 10.5578C22.1406 10.5786 22.362 10.589 22.6797 10.589C23.2422 10.589 23.638 10.3494 23.8672 9.87027L24.2734 8.90933L20.3828 0.628078H22.5391L25.1875 6.57339ZM40.9922 14.8H39.1172V12.0031H31.625V14.8H29.7188L29.6563 10.425H30.5703C31.0234 9.98746 31.3854 9.35204 31.6563 8.51871C31.9271 7.68016 32.1016 6.73225 32.1797 5.67496L32.4766 0.628078H39.6485V10.425H41.0938L40.9922 14.8ZM32.8047 10.425H37.6797V2.22183H34.3594L34.1719 5.42495C34.0313 7.56558 33.5755 9.23225 32.8047 10.425ZM49.5469 0.628078H51.5235V12.0031H49.5469V3.90152L44.5547 12.0031H42.5781V0.628078H44.5547V8.73746L49.5469 0.628078ZM59.5 12.0031V7.75308H57.2969L55.1016 12.0031H52.9844L55.5235 7.16714C54.2005 6.54214 53.5391 5.5187 53.5391 4.09683C53.5391 3.00829 53.8959 2.16193 54.6094 1.55777C55.3281 0.948391 56.3281 0.638495 57.6094 0.628078H61.4766V12.0031H59.5ZM55.5078 4.18277C55.5078 4.82339 55.6875 5.32339 56.0469 5.68277C56.4063 6.04214 56.9453 6.22183 57.6641 6.22183H59.5V2.22183H57.6641C56.9349 2.22183 56.3932 2.39631 56.0391 2.74527C55.6849 3.09422 55.5078 3.57339 55.5078 4.18277Z" fill="black"/>
</svg>
